<?xml version="1.0" standalone="no"?>
<!DOCTYPE svg PUBLIC "-//W3C//DTD SVG 1.1//EN" "http://www.w3.org/Graphics/SVG/1.1/DTD/svg11.dtd">
<svg xmlns="http://www.w3.org/2000/svg" id="uuid-2ae38005-9201-4eae-b4dc-e429e121b25f" data-name="Layer 1" viewBox="0 0 599.0599 609.6921" width="599.0598754882812" height="609.6920776367188">
  <defs>
    <style>
      .uuid-fd15c3e4-df19-412a-b607-2828f3cd8152 {
        fill-rule: evenodd;
      }

      .uuid-fd15c3e4-df19-412a-b607-2828f3cd8152, .uuid-e235db9d-55eb-450d-8327-dbec3f787743 {
        fill: #fff;
      }

      .uuid-fd15c3e4-df19-412a-b607-2828f3cd8152, .uuid-e235db9d-55eb-450d-8327-dbec3f787743, .uuid-0356a1c2-739f-4e0f-93de-2d41cdf2dfdc {
        stroke-width: 0px;
      }

      .uuid-0356a1c2-739f-4e0f-93de-2d41cdf2dfdc {
        fill: #eb6e26;
      }
    </style>
  </defs>
  <path class="uuid-fd15c3e4-df19-412a-b607-2828f3cd8152" d="M2.6437,302.3574C2.6437,137.4117,135.6097,3.6971,299.6054,3.6971s296.9679,133.7252,296.9679,298.6603-132.966,298.6603-296.9679,298.6603S2.6437,467.2926,2.6437,302.3574ZM35.6394,302.3574c0-146.6179,118.1514-265.4761,263.966-265.4761s263.9721,118.8257,263.9721,265.4761-118.1513,265.4779-263.9721,265.4779S35.6394,449.0077,35.6394,302.3574Z"/>
  <path class="uuid-e235db9d-55eb-450d-8327-dbec3f787743" d="M474.3901,444.8999l-213.9189-251.1984s-16.5852-22.5559-41.1556-23.7048h-80.9183l213.9189,251.1984s16.5852,22.5559,41.1556,23.7048h80.9183Z"/>
  <path class="uuid-0356a1c2-739f-4e0f-93de-2d41cdf2dfdc" d="M473.8712,169.6369l-213.3799,251.6564s-16.5368,22.5914-41.1047,23.793l-80.9181.1735,213.3799-251.6564s16.5368-22.5914,41.1047-23.793l80.9181-.1735Z"/>
</svg>