<?xml version="1.0" encoding="UTF-8"?>
<svg id="a" data-name="Layer 1" xmlns="http://www.w3.org/2000/svg" xmlns:xlink="http://www.w3.org/1999/xlink" viewBox="0 0 500 190.87">
  <defs>
    <style>
      .j {
        fill: none;
        stroke: #fff;
        stroke-miterlimit: 10;
        stroke-width: 8px;
      }

      .k {
        font-family: BlairITC-Medium, 'Blair ITC';
        font-size: 13.58px;
        font-weight: 500;
      }

      .k, .l {
        fill: #fff;
      }

      .m {
        fill: url(#c);
      }

      .m, .n, .o, .p, .q, .r, .s, .t {
        isolation: isolate;
      }

      .n {
        fill: url(#b);
      }

      .o {
        fill: url(#d);
      }

      .p {
        fill: url(#g);
      }

      .q {
        fill: url(#f);
      }

      .r {
        fill: url(#e);
      }

      .s {
        fill: url(#i);
      }

      .t {
        fill: url(#h);
      }

      .u {
        fill: #019ee3;
      }

      .v {
        letter-spacing: -.04em;
      }

      .w {
        letter-spacing: 0em;
      }

      .x {
        letter-spacing: .01em;
      }
    </style>
    <linearGradient id="b" data-name="New Gradient Swatch copy" x1="104.94" y1="123.1" x2="127.15" y2="146.06" gradientUnits="userSpaceOnUse">
      <stop offset=".76" stop-color="#009fe3"/>
      <stop offset=".79" stop-color="#19a8e5" stop-opacity=".9"/>
      <stop offset=".86" stop-color="#5cc1ed" stop-opacity=".64"/>
      <stop offset=".95" stop-color="#c6e9f8" stop-opacity=".22"/>
      <stop offset="1" stop-color="#fff" stop-opacity="0"/>
    </linearGradient>
    <linearGradient id="c" data-name="New Gradient Swatch copy" x1="103.29" y1="123.24" x2="79.95" y2="146.96" xlink:href="#b"/>
    <linearGradient id="d" data-name="New Gradient Swatch copy" x1="71.4" y1="89.77" x2="49.69" y2="68.06" xlink:href="#b"/>
    <linearGradient id="e" data-name="New Gradient Swatch copy" x1="74.9" y1="96.35" x2="52.31" y2="119.31" xlink:href="#b"/>
    <linearGradient id="f" data-name="New Gradient Swatch copy" x1="132.19" y1="95.48" x2="158.17" y2="121.84" xlink:href="#b"/>
    <linearGradient id="g" data-name="New Gradient Swatch copy" x1="99.04" y1="62.13" x2="77.33" y2="40.42" xlink:href="#b"/>
    <linearGradient id="h" data-name="New Gradient Swatch copy" x1="106.04" y1="65" x2="130.51" y2="40.91" xlink:href="#b"/>
    <linearGradient id="i" data-name="New Gradient Swatch copy" x1="131.67" y1="94.4" x2="158.78" y2="68.05" xlink:href="#b"/>
  </defs>
  <path class="u" d="M175.06,108.57c-2.95,0-5.45-.53-7.52-1.6-2.07-1.07-3.65-2.73-4.73-4.98s-1.63-5.13-1.63-8.63.61-6.58,1.85-8.88c1.23-2.3,2.94-3.99,5.13-5.06,2.18-1.08,4.71-1.63,7.6-1.63,2.05,0,3.83.2,5.33.6,1.5.39,2.8.86,3.92,1.42l-2.4,6.27c-1.28-.51-2.47-.93-3.56-1.25-1.1-.33-2.2-.5-3.29-.5-1.42,0-2.6.33-3.54,1-.93.66-1.63,1.65-2.08,2.98-.46,1.32-.69,2.98-.69,4.98s.24,3.6.73,4.9c.5,1.29,1.21,2.26,2.15,2.9.94.63,2.09.94,3.44.94,1.68,0,3.17-.22,4.48-.67,1.32-.46,2.59-1.09,3.83-1.92v6.94c-1.24.78-2.54,1.33-3.9,1.67-1.35.34-3.06.52-5.13.52Z"/>
  <path class="u" d="M217.94,93.15c0,2.47-.33,4.67-1,6.58-.66,1.92-1.62,3.54-2.9,4.85-1.27,1.32-2.79,2.31-4.56,2.98-1.78.67-3.79,1-6.02,1-2.08,0-4-.33-5.75-1-1.74-.67-3.25-1.66-4.54-2.98-1.28-1.32-2.27-2.94-2.98-4.85-.7-1.92-1.04-4.11-1.04-6.58,0-3.29.58-6.07,1.75-8.35,1.18-2.29,2.84-4.03,5-5.21,2.17-1.19,4.74-1.79,7.73-1.79,2.78,0,5.24.6,7.4,1.79,2.15,1.18,3.84,2.92,5.06,5.21,1.23,2.28,1.85,5.06,1.85,8.35ZM197.41,93.15c0,1.95.21,3.58.63,4.92.43,1.32,1.09,2.32,2,3,.9.67,2.08,1,3.54,1s2.59-.33,3.48-1c.9-.68,1.56-1.68,1.98-3,.42-1.33.63-2.97.63-4.92s-.21-3.6-.63-4.9c-.42-1.3-1.08-2.28-1.98-2.94-.91-.65-2.08-.98-3.54-.98-2.14,0-3.7.74-4.67,2.21-.96,1.46-1.44,3.66-1.44,6.6Z"/>
  <path class="u" d="M241.5,77.8c3.17,0,5.71.86,7.65,2.58,1.93,1.72,2.9,4.49,2.9,8.31v19.35h-8.1v-17.35c0-2.11-.39-3.71-1.17-4.79-.77-1.08-1.97-1.63-3.63-1.63-2.47,0-4.16.84-5.06,2.52-.91,1.68-1.35,4.1-1.35,7.27v13.98h-8.1v-29.69h6.19l1.08,3.79h.46c.64-1.03,1.43-1.86,2.38-2.5.94-.64,1.99-1.1,3.15-1.4,1.17-.3,2.38-.46,3.63-.46Z"/>
  <path class="u" d="M272.86,102.13c.89,0,1.75-.09,2.58-.27.84-.18,1.69-.4,2.52-.67v6.02c-.86.41-1.94.73-3.23.98-1.28.25-2.68.38-4.21.38-1.77,0-3.35-.29-4.77-.85-1.41-.57-2.51-1.57-3.31-3-.81-1.43-1.21-3.42-1.21-5.96v-14.31h-3.88v-3.44l4.46-2.71,2.33-6.27h5.19v6.33h8.31v6.08h-8.31v14.31c0,1.13.32,1.97.96,2.54.65.56,1.51.83,2.56.83Z"/>
  <path class="u" d="M296.21,77.8c2.73,0,5.09.53,7.08,1.58,1.98,1.06,3.51,2.58,4.58,4.58,1.08,2,1.63,4.45,1.63,7.33v3.92h-19.15c.09,2.29.78,4.09,2.06,5.4,1.28,1.29,3.06,1.94,5.35,1.94,1.89,0,3.61-.19,5.19-.58,1.58-.39,3.21-.97,4.88-1.75v6.27c-1.47.72-3.01,1.25-4.6,1.58-1.6.33-3.54.5-5.83.5-2.97,0-5.6-.55-7.9-1.65-2.29-1.09-4.09-2.76-5.4-5-1.31-2.25-1.96-5.08-1.96-8.5s.59-6.36,1.77-8.67c1.18-2.32,2.82-4.05,4.92-5.21,2.11-1.17,4.57-1.75,7.38-1.75ZM296.25,83.57c-1.57,0-2.88.51-3.92,1.52-1.03,1-1.63,2.58-1.79,4.73h11.38c-.02-1.19-.23-2.26-.65-3.19-.42-.94-1.04-1.69-1.88-2.23-.82-.55-1.87-.83-3.15-.83Z"/>
  <path class="u" d="M332.96,77.8c3.17,0,5.71.86,7.65,2.58,1.93,1.72,2.9,4.49,2.9,8.31v19.35h-8.1v-17.35c0-2.11-.39-3.71-1.17-4.79-.77-1.08-1.97-1.63-3.63-1.63-2.47,0-4.16.84-5.06,2.52-.91,1.68-1.35,4.1-1.35,7.27v13.98h-8.1v-29.69h6.19l1.08,3.79h.46c.64-1.03,1.43-1.86,2.38-2.5.94-.64,1.99-1.1,3.15-1.4,1.17-.3,2.38-.46,3.63-.46Z"/>
  <path class="u" d="M364.32,102.13c.89,0,1.75-.09,2.58-.27.84-.18,1.69-.4,2.52-.67v6.02c-.86.41-1.94.73-3.23.98-1.28.25-2.68.38-4.21.38-1.77,0-3.35-.29-4.77-.85-1.41-.57-2.51-1.57-3.31-3-.81-1.43-1.21-3.42-1.21-5.96v-14.31h-3.88v-3.44l4.46-2.71,2.33-6.27h5.19v6.33h8.31v6.08h-8.31v14.31c0,1.13.32,1.97.96,2.54.65.56,1.51.83,2.56.83Z"/>
  <path class="l" d="M384.12,121.11c-4.14,0-7.31-.72-9.5-2.17-2.18-1.45-3.27-3.47-3.27-6.06,0-1.79.55-3.29,1.67-4.5,1.11-1.19,2.75-2.05,4.92-2.56-.83-.36-1.56-.94-2.19-1.75-.61-.8-.92-1.66-.92-2.56,0-1.13.32-2.06.98-2.81.65-.76,1.59-1.51,2.83-2.23-1.56-.67-2.79-1.74-3.71-3.23-.91-1.48-1.35-3.24-1.35-5.27,0-2.15.47-3.98,1.42-5.5.94-1.51,2.32-2.67,4.15-3.46,1.82-.8,4.03-1.21,6.63-1.21.54,0,1.17.04,1.9.1.73.07,1.41.16,2.02.25.61.08,1.02.16,1.23.21h10.35v4.1l-4.65,1.21c.43.66.75,1.35.96,2.1.22.74.33,1.52.33,2.35,0,3.18-1.11,5.67-3.33,7.46-2.22,1.78-5.31,2.67-9.27,2.67-.93-.05-1.81-.13-2.65-.23-.42.32-.73.66-.94,1.02-.21.35-.31.72-.31,1.1s.16.72.48.98c.33.25.83.45,1.5.58.67.13,1.49.19,2.48.19h5.04c3.26,0,5.75.7,7.46,2.1,1.71,1.41,2.56,3.46,2.56,6.17,0,3.47-1.45,6.16-4.35,8.06-2.89,1.92-7.04,2.88-12.46,2.88ZM384.46,115.84c1.93,0,3.59-.19,4.98-.56,1.4-.36,2.47-.88,3.21-1.54.75-.66,1.13-1.45,1.13-2.38,0-.74-.22-1.33-.67-1.77-.43-.43-1.08-.74-1.96-.92-.88-.17-1.99-.25-3.35-.25h-4.21c-.99,0-1.88.16-2.67.48-.78.32-1.41.76-1.88,1.33-.46.58-.69,1.25-.69,2,0,1.13.53,2.01,1.6,2.65,1.07.64,2.57.96,4.5.96ZM385.77,93.3c1.53,0,2.65-.46,3.35-1.4.71-.94,1.06-2.22,1.06-3.83,0-1.78-.37-3.11-1.1-4-.74-.9-1.84-1.35-3.31-1.35s-2.6.45-3.35,1.35c-.74.89-1.1,2.22-1.1,4,0,1.61.36,2.89,1.1,3.83.73.93,1.85,1.4,3.35,1.4Z"/>
  <path class="l" d="M422.74,77.8c.4,0,.88.02,1.42.06s.98.1,1.31.17l-.6,7.6c-.28-.08-.66-.15-1.15-.19-.49-.05-.91-.08-1.25-.08-1.04,0-2.06.14-3.04.4-.99.27-1.87.7-2.65,1.29-.78.6-1.4,1.39-1.85,2.35-.45.96-.67,2.14-.67,3.54v15.1h-8.1v-29.69h6.13l1.21,4.98h.4c.58-1,1.31-1.92,2.19-2.75.88-.84,1.88-1.52,3-2.02,1.13-.51,2.34-.77,3.67-.77Z"/>
  <path class="l" d="M438.95,78.36v29.69h-8.1v-29.69h8.1ZM434.91,66.71c1.21,0,2.24.29,3.1.85.88.56,1.31,1.59,1.31,3.1s-.44,2.56-1.31,3.13c-.86.57-1.9.85-3.1.85s-2.27-.28-3.13-.85c-.86-.57-1.29-1.61-1.29-3.13s.43-2.55,1.29-3.1c.86-.57,1.9-.85,3.13-.85Z"/>
  <path class="l" d="M456.84,108.57c-3.31,0-6-1.29-8.08-3.88-2.08-2.59-3.13-6.41-3.13-11.44s1.05-8.93,3.17-11.54c2.11-2.61,4.86-3.92,8.25-3.92,1.42,0,2.67.2,3.75.58,1.08.39,2.01.91,2.79,1.56.79.66,1.46,1.39,2.02,2.21h.27c-.11-.57-.24-1.4-.4-2.5-.16-1.11-.23-2.25-.23-3.42v-9.52h8.15v41.33h-6.23l-1.56-3.85h-.35c-.52.82-1.16,1.56-1.92,2.23-.77.66-1.68,1.18-2.75,1.56-1.06.39-2.31.58-3.75.58ZM459.69,102.13c2.21,0,3.76-.66,4.67-1.98.92-1.32,1.4-3.3,1.46-5.96v-.9c0-2.88-.45-5.07-1.33-6.6-.88-1.54-2.52-2.31-4.94-2.31-1.78,0-3.18.77-4.19,2.31-1.02,1.54-1.52,3.77-1.52,6.67s.51,5.09,1.52,6.56c1.03,1.47,2.47,2.21,4.33,2.21Z"/>
  <path class="j" d="M175.35,66.37c-10.71-28.32-38.02-48.46-70.05-48.46-41.36,0-74.89,33.58-74.89,75.01s33.53,75.01,74.89,75.01c31.34,0,58.17-19.29,69.34-46.66"/>
  <g>
    <polygon class="l" points="130.48 96.02 125.54 96.02 106.12 115.44 106.13 115.46 105.12 116.47 105.12 121.41 110.06 121.41 112.31 119.16 112.29 119.15 130.48 100.96 130.48 96.02"/>
    <polygon class="l" points="103.02 68.38 98.08 68.38 78.66 87.8 78.68 87.82 77.66 88.83 77.66 93.77 82.6 93.77 84.85 91.52 84.84 91.51 103.02 73.32 103.02 68.38"/>
    <polygon class="l" points="105.1 68.39 105.1 73.33 124.53 92.76 124.54 92.74 125.56 93.75 130.5 93.75 130.5 88.81 128.25 86.57 128.23 86.58 110.04 68.39 105.1 68.39"/>
    <polygon class="l" points="77.65 96.04 77.65 100.98 97.07 120.4 97.09 120.38 98.1 121.4 103.04 121.4 103.04 116.46 100.79 114.21 100.78 114.22 82.59 96.04 77.65 96.04"/>
    <polygon class="n" points="105.1 123.71 105.1 128.65 124.53 148.08 124.54 148.06 125.56 149.07 130.5 149.07 130.5 144.13 128.25 141.89 128.23 141.9 110.04 123.71 105.1 123.71"/>
    <polygon class="m" points="103.02 123.71 98.08 123.71 78.66 143.14 78.68 143.15 77.66 144.17 77.66 149.11 82.6 149.11 84.85 146.86 84.84 146.84 103.02 128.65 103.02 123.71"/>
    <polygon class="o" points="50.01 68.39 50.01 73.33 69.44 92.76 69.45 92.74 70.46 93.75 75.4 93.75 75.4 88.81 73.16 86.57 73.14 86.58 54.95 68.39 50.01 68.39"/>
    <polygon class="r" points="75.39 96.05 70.45 96.05 51.02 115.48 51.04 115.49 50.03 116.5 50.03 121.44 54.97 121.44 57.22 119.2 57.2 119.18 75.39 100.99 75.39 96.05"/>
    <polygon class="q" points="132.57 96.07 132.57 101.01 152 120.43 152.01 120.42 153.02 121.43 157.96 121.43 157.96 116.49 155.72 114.24 155.7 114.26 137.51 96.07 132.57 96.07"/>
    <polygon class="p" points="77.65 40.75 77.65 45.69 97.07 65.12 97.09 65.1 98.1 66.11 103.04 66.11 103.04 61.17 100.79 58.93 100.78 58.94 82.59 40.75 77.65 40.75"/>
    <polygon class="t" points="130.48 40.72 125.54 40.72 106.12 60.15 106.13 60.16 105.12 61.17 105.12 66.11 110.06 66.11 112.31 63.87 112.29 63.85 130.48 45.66 130.48 40.72"/>
    <polygon class="s" points="158.09 68.35 153.15 68.35 133.72 87.77 133.74 87.79 132.73 88.8 132.73 93.74 137.67 93.74 139.92 91.49 139.9 91.48 158.09 73.29 158.09 68.35"/>
  </g>
  <text class="k" transform="translate(375.1 142.65) scale(1.11 1)"><tspan class="v" x="0" y="0">b</tspan><tspan x="11.9" y="0">y </tspan><tspan class="w" x="27.22" y="0">a</tspan><tspan x="38.59" y="0">m</tspan><tspan class="x" x="53.16" y="0">e</tspan><tspan x="64.43" y="0">xio</tspan></text>
</svg>